<?xml version="1.0" standalone="no"?>
<!DOCTYPE svg PUBLIC "-//W3C//DTD SVG 20010904//EN"
 "http://www.w3.org/TR/2001/REC-SVG-20010904/DTD/svg10.dtd">
<svg version="1.0" xmlns="http://www.w3.org/2000/svg"
 width="500.000000pt" height="500.000000pt" viewBox="0 0 500.000000 500.000000"
 preserveAspectRatio="xMidYMid meet">
<metadata>
Created by potrace 1.14, written by Peter Selinger 2001-2017
</metadata>
<g transform="translate(0.000000,500.000000) scale(0.100000,-0.100000)"
fill="#000000" stroke="none">
<path d="M1039 3793 c-10 -12 -10 -16 2 -24 8 -5 19 -9 26 -9 7 0 28 -16 47
-34 36 -36 61 -103 73 -193 9 -70 10 -1276 1 -1354 -10 -87 -31 -134 -68 -156
-16 -9 -30 -24 -30 -33 0 -23 323 -23 328 0 1 9 -14 23 -39 35 -56 27 -94 77
-115 150 -16 53 -18 134 -21 730 -2 536 0 665 10 650 6 -11 17 -29 24 -40 6
-11 34 -56 61 -100 27 -44 168 -275 312 -513 244 -401 265 -433 289 -430 22 3
45 36 153 218 70 118 143 243 163 278 31 53 39 61 54 52 28 -15 52 -74 58
-148 8 -85 9 -1360 1 -1427 -9 -72 -32 -123 -68 -143 -16 -9 -30 -25 -30 -35
0 -16 12 -17 162 -15 137 3 163 5 166 18 2 10 -10 20 -34 29 -72 26 -113 88
-135 204 -11 58 -21 1282 -11 1315 2 6 50 -48 107 -122 l102 -134 -2 -199 c-1
-109 -6 -214 -10 -233 -10 -49 -43 -100 -72 -111 -16 -6 -23 -15 -21 -27 3
-15 21 -17 212 -17 188 0 209 2 212 17 1 10 -9 21 -27 28 -42 18 -68 79 -75
180 l-6 85 64 -80 c35 -45 149 -193 253 -329 105 -137 210 -274 235 -306 25
-32 94 -121 153 -199 94 -123 134 -161 138 -133 1 4 2 381 4 837 1 457 6 843
9 860 12 51 30 79 63 100 30 18 43 43 26 46 -5 1 -79 2 -165 3 -142 1 -158 0
-158 -16 0 -10 13 -21 33 -27 39 -13 77 -51 102 -101 37 -72 43 -183 44 -770
l2 -565 -20 25 c-22 28 -303 391 -594 767 l-187 243 1 434 c1 239 6 459 11
488 18 108 58 173 119 198 18 8 29 20 29 31 0 18 -9 19 -148 18 l-147 0 -215
-362 c-129 -216 -221 -362 -230 -362 -9 0 -15 -10 -15 -25 0 -14 -47 -104
-105 -202 -88 -148 -106 -174 -116 -160 -6 10 -136 224 -289 477 -153 253
-303 499 -332 547 l-54 87 -149 0 c-119 -1 -151 -4 -161 -16z m1587 -538 c-1
-184 -4 -331 -7 -327 -4 4 -34 41 -67 83 l-60 76 -77 -1 c-42 -1 -78 1 -80 4
-2 4 55 105 126 226 72 120 137 231 145 247 8 15 16 27 17 27 2 0 3 -151 3
-335z"/>
</g>
</svg>
